<?xml version="1.0" standalone="no"?>
<!DOCTYPE svg PUBLIC "-//W3C//DTD SVG 20010904//EN"
 "http://www.w3.org/TR/2001/REC-SVG-20010904/DTD/svg10.dtd">
<svg version="1.0" xmlns="http://www.w3.org/2000/svg"
 width="1002.000000pt" height="1002.000000pt" viewBox="0 0 1002.000000 1002.000000"
 preserveAspectRatio="xMidYMid meet">
<metadata>
Created by potrace 1.11, written by Peter Selinger 2001-2013
</metadata>
<g transform="translate(0.000000,1002.000000) scale(0.100000,-0.100000)"
fill="#000000" stroke="none">
<path d="M4748 10016 c-1 -2 -50 -6 -108 -10 -114 -7 -116 -8 -335 -37 -946
-127 -1827 -530 -2594 -1187 -82 -70 -388 -376 -467 -467 -216 -247 -431 -548
-573 -800 -34 -60 -66 -117 -71 -125 -62 -103 -222 -456 -290 -641 -57 -153
-137 -410 -154 -492 -3 -12 -14 -58 -25 -102 -10 -44 -22 -93 -24 -110 -3 -16
-11 -55 -17 -85 -6 -30 -13 -68 -15 -85 -3 -16 -7 -40 -9 -52 -5 -22 -14 -87
-21 -138 -4 -38 -15 -121 -20 -160 -27 -214 -27 -804 0 -1027 3 -18 7 -55 10
-83 12 -108 18 -146 40 -275 16 -90 48 -241 89 -411 21 -86 98 -327 147 -461
100 -270 257 -600 397 -828 45 -74 212 -326 255 -385 33 -46 120 -159 127
-165 3 -3 23 -27 44 -55 114 -144 431 -471 586 -605 81 -70 255 -209 300 -240
19 -13 41 -30 47 -36 17 -16 359 -244 367 -244 3 0 27 -13 53 -29 134 -81 377
-204 560 -282 341 -146 786 -277 1103 -325 19 -2 46 -7 60 -10 47 -9 75 -13
125 -19 28 -3 64 -7 80 -10 202 -35 822 -41 1090 -11 17 2 59 7 95 11 61 6
268 37 335 50 113 21 157 31 300 67 467 117 878 287 1345 555 46 26 331 213
340 223 3 3 49 38 104 79 54 40 108 81 120 91 11 10 64 53 116 96 95 79 416
393 501 490 24 28 55 64 69 80 122 141 430 564 430 591 0 3 8 17 19 31 40 57
170 294 240 437 179 366 321 790 405 1205 25 124 29 149 42 245 3 28 7 57 9
65 10 54 24 187 33 315 14 202 6 736 -12 855 -2 14 -7 52 -11 85 -14 127 -15
135 -31 233 -5 31 -28 151 -50 262 -3 14 -16 70 -30 125 -138 552 -363 1067
-678 1550 -42 63 -80 121 -86 128 -6 6 -45 59 -88 117 -85 114 -88 118 -177
224 -106 126 -136 158 -310 331 -279 279 -584 521 -895 710 -36 22 -72 45 -81
50 -9 6 -40 23 -70 40 -30 16 -63 35 -74 41 -51 31 -350 176 -435 212 -341
144 -724 260 -1045 317 -16 2 -41 7 -55 10 -14 3 -43 8 -65 11 -22 4 -47 7
-55 9 -8 1 -42 5 -75 10 -33 4 -67 9 -76 10 -8 2 -55 6 -105 10 -49 4 -98 9
-109 12 -22 5 -641 13 -647 9z"/>
</g>
</svg>
